<svg xmlns="http://www.w3.org/2000/svg" width="100" height="100" viewBox="0 0 100 100">
  <defs>
    <style>
      .icon { fill: none; stroke: #E74C3C; stroke-width: 0.8; stroke-linecap: round; stroke-linejoin: round; }
    </style>
  </defs>
  <!-- Bowl -->
  <g transform="translate(10, 10)">
    <path class="icon" d="M2 12 C2 18 6 22 12 22 C18 22 22 18 22 12 L2 12 Z"/>
    <path class="icon" d="M4 12 C4 8 8 6 12 6 C16 6 20 8 20 12"/>
  </g>
  <!-- Fork -->
  <g transform="translate(60, 8)">
    <line class="icon" x1="10" y1="2" x2="10" y2="22"/>
    <line class="icon" x1="6" y1="2" x2="6" y2="10"/>
    <line class="icon" x1="10" y1="2" x2="10" y2="10"/>
    <line class="icon" x1="14" y1="2" x2="14" y2="10"/>
    <path class="icon" d="M6 10 Q10 14 14 10"/>
  </g>
  <!-- Leaf -->
  <g transform="translate(8, 55)">
    <path class="icon" d="M12 22 C12 22 4 18 4 10 C4 4 10 2 16 2 C16 10 20 16 12 22 Z"/>
    <path class="icon" d="M12 22 C12 22 8 14 12 8"/>
  </g>
  <!-- Chili -->
  <g transform="translate(55, 55)">
    <path class="icon" d="M14 4 C14 4 18 6 18 12 C18 20 12 24 10 24 C8 24 4 20 4 14 C4 8 8 4 14 4 Z"/>
    <path class="icon" d="M12 2 C12 2 14 0 16 2"/>
    <path class="icon" d="M8 10 C10 12 10 16 8 18"/>
  </g>
</svg>
